<svg width="72" height="8" viewBox="0 0 72 8" fill="none" xmlns="http://www.w3.org/2000/svg">
<path d="M67.8877 7.73633C65.7356 7.73633 63.9941 6.02475 63.9941 3.91797C63.9942 1.81121 65.7357 0.100585 67.8877 0.100586C70.0396 0.100688 71.7812 1.81127 71.7813 3.91797C71.7813 6.02469 70.0397 7.73623 67.8877 7.73633Z" fill="white" stroke="black" stroke-width="0.2"/>
<path d="M51.9146 7.73633C49.7625 7.73633 48.021 6.02475 48.021 3.91797C48.021 1.81121 49.7625 0.100585 51.9146 0.100586C54.0665 0.100688 55.8081 1.81127 55.8081 3.91797C55.8081 6.02469 54.0665 7.73623 51.9146 7.73633Z" fill="white" stroke="black" stroke-width="0.2"/>
<path d="M35.9409 7.73633C33.7889 7.73633 32.0474 6.02475 32.0474 3.91797C32.0474 1.81121 33.7889 0.100585 35.9409 0.100586C38.0929 0.100688 39.8344 1.81127 39.8345 3.91797C39.8345 6.02469 38.0929 7.73623 35.9409 7.73633Z" fill="white" stroke="black" stroke-width="0.2"/>
<path d="M19.9673 7.73633C17.8152 7.73633 16.0737 6.02475 16.0737 3.91797C16.0738 1.81121 17.8153 0.100585 19.9673 0.100586C22.1192 0.100688 23.8608 1.81127 23.8608 3.91797C23.8608 6.02469 22.1192 7.73623 19.9673 7.73633Z" fill="white" stroke="black" stroke-width="0.2"/>
<path d="M3.99365 7.73633C1.8416 7.73633 0.100098 6.02475 0.100098 3.91797C0.100131 1.81121 1.84163 0.100585 3.99365 0.100586C6.14559 0.100688 7.88718 1.81127 7.88721 3.91797C7.88721 6.02469 6.14561 7.73623 3.99365 7.73633Z" fill="black" stroke="black" stroke-width="0.2"/>
</svg>
